<svg version="1.1" xmlns="http://www.w3.org/2000/svg" viewBox="0 0 1024 1024" role="img" aria-hidden="true">
<style type="text/css">.st0{fill:#A7AAAD;}.st1{fill-rule:evenodd;clip-rule:evenodd;fill:#A7AAAD;}</style>
<g>
<path class="st0" d="M762.9,819.7h-54v9.9c0,18.7,15.2,33.9,33.9,33.9h54v-9.9C796.9,834.9,781.7,819.7,762.9,819.7z"/>
<path class="st0" d="M660.4,819.7h-54v9.9c0,18.7,15.2,33.9,33.9,33.9h54v-9.9C694.3,834.9,679.1,819.7,660.4,819.7z"/>
<path class="st0" d="M557.8,819.7h-54v9.9c0,18.7,15.2,33.9,33.9,33.9h54v-9.9C591.7,834.9,576.5,819.7,557.8,819.7z"/>
<path class="st1" d="M263.4,443.9c-53.1,63.5-80,128.5-77.8,187.8v0c-0.1,1.8-0.3,3.5-0.3,5.2c-1-3.1-2.1-6.9-3.4-11.3c-3-10.4-4.7-20.4-5.6-25.5c-0.1-0.7-0.2-1.2-0.3-1.7c-0.5-2.8-2.1-15.7-3.9-29.3c-1-8-2.1-16.2-3-22.7c-2.3-17.5-6.8-36.3-10.1-49c-3.3-12.7-8.9-26.1-14.4-38.5c-5.5-12.4-13.9-27.4-20.3-38.3c-6.4-10.8-15.2-21.2-15.2-21.2c-26.6-30.9-49.7-32.8-49.7-32.8c-22.6-5.5-42-1.4-42-1.4c3.7-22.6,10.7-35.9,17.1-47.9c0.3-0.7,0.7-1.3,1-1.9c6.7-12.5,17.9-24,24.2-29.3c0.2-0.2,0.5-0.4,0.8-0.7c7.9-6.7,39.6-33.6,95.2-33.1c57.8,0.5,85.6,23.6,100.5,38.4c14.9,14.7,32.7,40.1,37.3,46.8c4.6,6.6,13.3,20.2,13.3,20.2s8.1,13,15.8,25.2C300.2,403.1,280.4,423.4,263.4,443.9z M118,315.4c0,6.1-4.8,11-10.7,11s-10.7-4.9-10.7-11c0-6.1,4.8-11,10.7-11C113.2,304.4,118,309.3,118,315.4z"/>
<path class="st0" d="M722.1,164.1c-53.8,24.3-102.2,48-146.1,71.3c-179.1,95.2-279.1,185.4-329,263c11.9-13.7,25.5-27.1,40.7-40C373,386.1,505.3,330.7,681,293.6l10.7-2.2c19.7-59.2,32.3-105.3,36.9-123C729.7,164.8,725.7,162.7,722.1,164.1z"/>
<path class="st0" d="M652.7,400c5.2-12.5,11-29.4,17.1-45.5c0.9-2.7,1.9-5.7,3.1-8.1c4.7-12.7,8.8-24.5,11.9-33.6c-294.7,62.1-420.8,167.6-462.9,258C290.4,481.7,385.6,420.9,652.7,400z"/>
<path class="st0" d="M643.4,417.6c-151.8,14.7-267.6,47-344.5,96.2c-39.2,25.1-63.5,51.5-78.3,76.4c-28.4,47.7-20.7,109.4,21,146c8.1,7.1,16.5,12.4,24.4,16.1c22.1,10.2,44.3,15.3,66,15.3c61.1,0,123.1-40.6,184.2-120.7C560.1,589.2,602.9,512.2,643.4,417.6z"/>
<path class="st0" d="M720.2,413.3c-19.5,0.5-38.3,1.3-56.4,2.3l-12.3,27.7C610,537.3,566,614.3,520.8,672c-17.9,22.8-35.9,42.5-54.1,59.2c116.5-77.3,232.6-223.3,301-318.7C751.7,412.5,735.6,412.8,720.2,413.3L720.2,413.3z"/>
<path class="st0" d="M782.5,394.5c24.1-37.4,48.7-80.4,61.1-101.1c2.4-4-0.3-9.4-4.4-8.7c-50.1,7.7-116,20.4-135.3,24.2c-3.3,10-7.2,21.4-11.5,33.7l-0.4,1c-0.8,1.8-1.7,4.2-2.4,6.6l-0.7,2c-3.2,8.8-12.9,32.3-18.3,46.3C692.3,396.7,732.6,394.3,782.5,394.5L782.5,394.5z"/>
<path class="st0" d="M220.2,702c-0.3-0.3,0.1,0.6,1.3,2.3C221.1,703.5,220.6,702.8,220.2,702z"/>
<path class="st0" d="M594.3,644.1c24.4-16.6,49.7-35.1,75.9-55.5c80.8-62.9,150-128.2,189.1-166.7c2.1-2,0.7-5.7-2.2-5.7c-26.4-0.5-54.7-0.7-71.3-0.9C739.7,480,670.7,569.4,594.3,644.1z"/>
<path class="st0" d="M335.3,776.8c-1.8,0.1-3.5,0.1-5.2,0.1c1,0,2,0,3,0C333.9,776.9,334.6,776.8,335.3,776.8L335.3,776.8z"/>
<path class="st0" d="M325.6,776.7c1,0,2.1,0.1,3.2,0.1c0.1,0,0.2,0,0.4,0C327.9,776.9,326.7,776.8,325.6,776.7L325.6,776.7z"/>
<path class="st0" d="M307.3,775.2h-0.5c11.3,4.9,23.1,8.8,35,11.7c27.9,7.8,103.9,29.4,124.2,37.5c0,0-43.9-23-55.3-31.3h-0.2c7.6-0.5,22.4-1.9,30-3.2c30.2,6.4,31.7,9.5,49.8,16.7c0,0-29.3-21.8-29.8-21.8c35.5-10,69.4-28.4,97.7-55.1c1.4-1.5,2.8-2.7,4.3-4.2c27.2-25.7,53.1-39.7,63.2-44.8c17.6-9.1,71.3-36,153.5-43.1c-47.2-2.2-88.8-6.1-122.3-10.8C519.8,733.5,413.4,786.5,307.3,775.2L307.3,775.2z"/>
<path class="st0" d="M935.6,665.2c-82.8-35.5-217.4-24.2-311,41c9.3-1.9,19.4-3,30.2-3c9.1,0,18.6,0.8,28.5,2.7c27.4,5.2,55.4,21.9,85,39.5c33.7,20,68.6,40.8,109.1,50.1l0.3,0.1c4.1,1.1,7.9,2.1,11.6,2.9c38.6,7.5,83.3-3.8,104-26.2c7.9-8.5,11.4-17.9,10.6-27.8C1002.2,721,988.9,688,935.6,665.2z"/>
</g>
</svg>
